G04 EAGLE Gerber RS-274X export*
G75*
%MOMM*%
%FSLAX34Y34*%
%LPD*%
%INTop Copper*%
%IPPOS*%
%AMOC8*
5,1,8,0,0,1.08239X$1,22.5*%
G01*
G04 Define Apertures*
%ADD10P,1.92449X8X112.5*%
%ADD11P,1.92449X8X292.5*%
%ADD12P,1.64956X8X22.5*%
%ADD13C,1.778000*%
D10*
X292100Y177800D03*
X317500Y177800D03*
X342900Y177800D03*
X368300Y177800D03*
X393700Y177800D03*
X419100Y177800D03*
X444500Y177800D03*
X469900Y177800D03*
D11*
X571500Y406400D03*
X546100Y406400D03*
X520700Y406400D03*
X495300Y406400D03*
X469900Y406400D03*
X444500Y406400D03*
X419100Y406400D03*
X393700Y406400D03*
X368300Y406400D03*
X342900Y406400D03*
X317500Y406400D03*
X292100Y406400D03*
X266700Y406400D03*
X241300Y406400D03*
X215900Y406400D03*
X190500Y406400D03*
X165100Y406400D03*
X139700Y406400D03*
X114300Y406400D03*
X88900Y406400D03*
D12*
X88900Y38100D03*
X88900Y63500D03*
X114300Y38100D03*
X114300Y63500D03*
X139700Y38100D03*
X139700Y63500D03*
X165100Y38100D03*
X165100Y63500D03*
X190500Y38100D03*
X190500Y63500D03*
X215900Y38100D03*
X215900Y63500D03*
X241300Y38100D03*
X241300Y63500D03*
X266700Y38100D03*
X266700Y63500D03*
X292100Y38100D03*
X292100Y63500D03*
X317500Y38100D03*
X317500Y63500D03*
X342900Y38100D03*
X342900Y63500D03*
X368300Y38100D03*
X368300Y63500D03*
X393700Y38100D03*
X393700Y63500D03*
X419100Y38100D03*
X419100Y63500D03*
X444500Y38100D03*
X444500Y63500D03*
X469900Y38100D03*
X469900Y63500D03*
X495300Y38100D03*
X495300Y63500D03*
X520700Y38100D03*
X520700Y63500D03*
X546100Y38100D03*
X546100Y63500D03*
X571500Y38100D03*
X571500Y63500D03*
D10*
X88900Y177800D03*
X114300Y177800D03*
X139700Y177800D03*
X165100Y177800D03*
X190500Y177800D03*
X215900Y177800D03*
X241300Y177800D03*
X266700Y177800D03*
D13*
X495300Y177800D03*
X520700Y177800D03*
X546100Y177800D03*
X571500Y177800D03*
M02*
