G04 EAGLE Gerber RS-274X export*
G75*
%MOMM*%
%FSLAX34Y34*%
%LPD*%
%INBottom Copper*%
%IPPOS*%
%AMOC8*
5,1,8,0,0,1.08239X$1,22.5*%
G01*
G04 Define Apertures*
%ADD10P,1.92449X8X112.5*%
%ADD11P,1.92449X8X292.5*%
%ADD12P,1.64956X8X22.5*%
%ADD13C,1.778000*%
%ADD14R,1.268000X1.268000*%
%ADD15C,1.268000*%
%ADD16C,1.430000*%
%ADD17C,1.408000*%
%ADD18C,0.152400*%
D10*
X304800Y190500D03*
X330200Y190500D03*
X355600Y190500D03*
X381000Y190500D03*
X406400Y190500D03*
X431800Y190500D03*
X457200Y190500D03*
X482600Y190500D03*
D11*
X584200Y419100D03*
X558800Y419100D03*
X533400Y419100D03*
X508000Y419100D03*
X482600Y419100D03*
X457200Y419100D03*
X431800Y419100D03*
X406400Y419100D03*
X381000Y419100D03*
X355600Y419100D03*
X330200Y419100D03*
X304800Y419100D03*
X279400Y419100D03*
X254000Y419100D03*
X228600Y419100D03*
X203200Y419100D03*
X177800Y419100D03*
X152400Y419100D03*
X127000Y419100D03*
X101600Y419100D03*
D12*
X101600Y50800D03*
X101600Y76200D03*
X127000Y50800D03*
X127000Y76200D03*
X152400Y50800D03*
X152400Y76200D03*
X177800Y50800D03*
X177800Y76200D03*
X203200Y50800D03*
X203200Y76200D03*
X228600Y50800D03*
X228600Y76200D03*
X254000Y50800D03*
X254000Y76200D03*
X279400Y50800D03*
X279400Y76200D03*
X304800Y50800D03*
X304800Y76200D03*
X330200Y50800D03*
X330200Y76200D03*
X355600Y50800D03*
X355600Y76200D03*
X381000Y50800D03*
X381000Y76200D03*
X406400Y50800D03*
X406400Y76200D03*
X431800Y50800D03*
X431800Y76200D03*
X457200Y50800D03*
X457200Y76200D03*
X482600Y50800D03*
X482600Y76200D03*
X508000Y50800D03*
X508000Y76200D03*
X533400Y50800D03*
X533400Y76200D03*
X558800Y50800D03*
X558800Y76200D03*
X584200Y50800D03*
X584200Y76200D03*
D10*
X101600Y190500D03*
X127000Y190500D03*
X152400Y190500D03*
X177800Y190500D03*
X203200Y190500D03*
X228600Y190500D03*
X254000Y190500D03*
X279400Y190500D03*
D13*
X508000Y190500D03*
X533400Y190500D03*
X558800Y190500D03*
X584200Y190500D03*
D14*
X664220Y228600D03*
D15*
X664220Y203200D03*
X664220Y177800D03*
X664220Y152400D03*
X758180Y152400D03*
X758180Y177800D03*
X758180Y203200D03*
X758180Y228600D03*
D16*
X609220Y95758D03*
X726820Y95758D03*
D17*
X711200Y368300D03*
X711200Y343300D03*
X711200Y318300D03*
X711200Y293300D03*
D18*
X203200Y190500D02*
X203200Y152400D01*
X152400Y101600D01*
X152400Y76200D01*
X228600Y152400D02*
X228600Y190500D01*
X228600Y152400D02*
X177800Y101600D01*
X177800Y76200D01*
X203200Y76200D02*
X203200Y101600D01*
X254000Y152400D01*
X254000Y190500D01*
X279400Y190500D02*
X279400Y152400D01*
X254000Y127000D01*
X254000Y76200D01*
X304800Y152400D02*
X304800Y190500D01*
X304800Y152400D02*
X279400Y127000D01*
X279400Y76200D01*
X330200Y152400D02*
X330200Y190500D01*
X330200Y152400D02*
X304800Y127000D01*
X304800Y76200D01*
X355600Y152400D02*
X355600Y190500D01*
X355600Y152400D02*
X330200Y127000D01*
X330200Y76200D01*
X381000Y152400D02*
X381000Y190500D01*
X381000Y152400D02*
X355600Y127000D01*
X355600Y76200D01*
X406400Y152400D02*
X406400Y190500D01*
X406400Y152400D02*
X381000Y127000D01*
X381000Y76200D01*
X406400Y76200D02*
X406400Y127000D01*
X431800Y152400D01*
X431800Y190500D01*
X457200Y190500D02*
X457200Y152400D01*
X431800Y127000D01*
X431800Y76200D01*
X469900Y63500D02*
X482600Y50800D01*
X469900Y63500D02*
X469900Y139700D01*
X482600Y152400D01*
X482600Y190500D01*
X101600Y190500D02*
X88900Y177800D01*
X88900Y63500D01*
X101600Y50800D01*
X152400Y254000D02*
X152400Y419100D01*
X152400Y254000D02*
X190500Y215900D01*
X190500Y152400D01*
X139700Y101600D01*
X139700Y63500D01*
X152400Y50800D01*
X177800Y254000D02*
X177800Y419100D01*
X177800Y254000D02*
X215900Y215900D01*
X215900Y152400D01*
X165100Y101600D01*
X165100Y63500D01*
X177800Y50800D01*
X203200Y254000D02*
X203200Y419100D01*
X203200Y254000D02*
X241300Y215900D01*
X241300Y152400D01*
X190500Y101600D01*
X190500Y63500D01*
X203200Y50800D01*
X101600Y165100D02*
X127000Y190500D01*
X101600Y165100D02*
X101600Y76200D01*
X114300Y152400D02*
X152400Y190500D01*
X114300Y152400D02*
X114300Y63500D01*
X127000Y50800D01*
X177800Y152400D02*
X177800Y190500D01*
X177800Y152400D02*
X127000Y101600D01*
X127000Y76200D01*
X584200Y228600D02*
X596900Y215900D01*
X584200Y228600D02*
X584200Y419100D01*
X584200Y139700D02*
X584200Y76200D01*
X584200Y139700D02*
X596900Y152400D01*
X596900Y215900D01*
X571500Y215900D02*
X558800Y228600D01*
X558800Y419100D01*
X558800Y139700D02*
X558800Y76200D01*
X558800Y139700D02*
X571500Y152400D01*
X571500Y215900D01*
X533400Y228600D02*
X533400Y419100D01*
X533400Y228600D02*
X546100Y215900D01*
X533400Y139700D02*
X533400Y76200D01*
X533400Y139700D02*
X546100Y152400D01*
X546100Y215900D01*
X508000Y228600D02*
X508000Y419100D01*
X508000Y228600D02*
X520700Y215900D01*
X508000Y139700D02*
X508000Y76200D01*
X508000Y139700D02*
X520700Y152400D01*
X520700Y215900D01*
X482600Y228600D02*
X482600Y419100D01*
X482600Y228600D02*
X495300Y215900D01*
X482600Y139700D02*
X482600Y76200D01*
X482600Y139700D02*
X495300Y152400D01*
X495300Y215900D01*
X228600Y419100D02*
X204722Y442978D01*
X100078Y442978D01*
X50800Y393700D01*
X50800Y50800D01*
X88900Y12700D01*
X419100Y12700D01*
X457200Y50800D01*
X495300Y12700D01*
X643762Y12700D01*
X726820Y95758D01*
X756158Y95758D01*
X787400Y127000D01*
X787400Y190500D02*
X758180Y219720D01*
X758180Y228600D01*
X787400Y190500D02*
X787400Y127000D01*
X431800Y50800D02*
X419100Y63500D01*
X419100Y127000D01*
X444500Y152400D01*
X444500Y215900D01*
X431800Y228600D01*
X431800Y419100D01*
X393700Y63500D02*
X406400Y50800D01*
X393700Y63500D02*
X393700Y127000D01*
X419100Y152400D01*
X419100Y215900D01*
X406400Y228600D01*
X406400Y419100D01*
X368300Y63500D02*
X381000Y50800D01*
X368300Y63500D02*
X368300Y127000D01*
X393700Y152400D01*
X393700Y215900D01*
X381000Y228600D01*
X381000Y419100D01*
X342900Y63500D02*
X355600Y50800D01*
X342900Y63500D02*
X342900Y127000D01*
X368300Y152400D01*
X368300Y215900D01*
X355600Y228600D01*
X355600Y419100D01*
X330200Y419100D02*
X330200Y228600D01*
X342900Y215900D01*
X342900Y152400D01*
X317500Y127000D01*
X317500Y63500D01*
X330200Y50800D01*
X304800Y50800D02*
X292100Y63500D01*
X292100Y127000D01*
X317500Y152400D01*
X317500Y215900D01*
X304800Y228600D01*
X304800Y419100D01*
X266700Y63500D02*
X279400Y50800D01*
X266700Y63500D02*
X266700Y127000D01*
X292100Y152400D01*
X292100Y215900D01*
X279400Y228600D01*
X279400Y419100D01*
X101600Y419100D02*
X63500Y381000D01*
X63500Y50800D01*
X86614Y27686D01*
X218186Y27686D01*
X228600Y38100D02*
X228600Y50800D01*
X228600Y38100D02*
X218186Y27686D01*
X254000Y228600D02*
X254000Y419100D01*
X241300Y63500D02*
X254000Y50800D01*
X241300Y63500D02*
X241300Y127000D01*
X266700Y152400D01*
X266700Y215900D01*
X254000Y228600D01*
X76200Y368300D02*
X127000Y419100D01*
X76200Y368300D02*
X76200Y50800D01*
X215900Y63500D02*
X228600Y76200D01*
X89916Y37084D02*
X76200Y50800D01*
X89916Y37084D02*
X208319Y37084D01*
X215900Y44665D01*
X215900Y63500D01*
X457200Y228600D02*
X457200Y419100D01*
X457200Y228600D02*
X469900Y215900D01*
X469900Y152400D01*
X457200Y139700D01*
X457200Y76200D01*
X469900Y442978D02*
X585722Y442978D01*
X469900Y442978D02*
X457200Y430278D01*
X457200Y419100D01*
X609078Y229122D02*
X622300Y215900D01*
X609078Y229122D02*
X609078Y419622D01*
X585722Y442978D01*
X622300Y215900D02*
X622300Y165100D01*
X635000Y152400D01*
X664220Y152400D01*
X508000Y50800D02*
X495300Y63500D01*
X495300Y139700D01*
X508000Y152400D01*
X508000Y190500D01*
X508000Y50800D02*
X533400Y25400D01*
X622300Y25400D01*
X698500Y101600D01*
X698500Y177800D01*
X673100Y203200D01*
X664220Y203200D01*
X520700Y63500D02*
X533400Y50800D01*
X520700Y63500D02*
X520700Y139700D01*
X533400Y152400D01*
X533400Y190500D01*
X546100Y63500D02*
X558800Y50800D01*
X546100Y63500D02*
X546100Y139700D01*
X558800Y152400D01*
X558800Y190500D01*
X571500Y63500D02*
X584200Y50800D01*
X571500Y63500D02*
X571500Y139700D01*
X584200Y152400D01*
X584200Y190500D01*
X609600Y76200D02*
X584200Y50800D01*
X609600Y76200D02*
X609600Y96138D01*
X609220Y95758D01*
X627762Y114300D01*
X660400Y114300D01*
X685800Y139700D01*
X685800Y152400D01*
X664220Y173980D01*
X664220Y177800D01*
X736600Y292100D02*
X711200Y317500D01*
X711200Y318300D01*
X736600Y292100D02*
X736600Y199380D01*
X758180Y177800D01*
X723900Y280600D02*
X711200Y293300D01*
X723900Y280600D02*
X723900Y186680D01*
X758180Y152400D01*
X664220Y228600D02*
X664220Y334020D01*
X698500Y368300D01*
X711200Y368300D01*
X745480Y215900D02*
X758180Y203200D01*
X745480Y215900D02*
X745480Y308620D01*
X711200Y342900D01*
X711200Y343300D01*
M02*
