M48
;GenerationSoftware,Autodesk,EAGLE,9.7.0*%
;CreationDate,2026-05-15T05:30:52Z*%
FMAT,2
ICI,OFF
METRIC,TZ,000.000
T2C1.016
T1C3.000
%
G90
M71
T1
X2540Y40640
X2540Y2540
X62230Y2540
X62230Y40640
T2
X29210Y17780
X31750Y17780
X34290Y17780
X36830Y17780
X39370Y17780
X41910Y17780
X44450Y17780
X46990Y17780
X57150Y40640
X54610Y40640
X52070Y40640
X49530Y40640
X46990Y40640
X44450Y40640
X41910Y40640
X39370Y40640
X36830Y40640
X34290Y40640
X31750Y40640
X29210Y40640
X26670Y40640
X24130Y40640
X21590Y40640
X19050Y40640
X16510Y40640
X13970Y40640
X11430Y40640
X8890Y40640
X8890Y3810
X8890Y6350
X11430Y3810
X11430Y6350
X13970Y3810
X13970Y6350
X16510Y3810
X16510Y6350
X19050Y3810
X19050Y6350
X21590Y3810
X21590Y6350
X24130Y3810
X24130Y6350
X26670Y3810
X26670Y6350
X29210Y3810
X29210Y6350
X31750Y3810
X31750Y6350
X34290Y3810
X34290Y6350
X36830Y3810
X36830Y6350
X39370Y3810
X39370Y6350
X41910Y3810
X41910Y6350
X44450Y3810
X44450Y6350
X46990Y3810
X46990Y6350
X49530Y3810
X49530Y6350
X52070Y3810
X52070Y6350
X54610Y3810
X54610Y6350
X57150Y3810
X57150Y6350
X8890Y17780
X11430Y17780
X13970Y17780
X16510Y17780
X19050Y17780
X21590Y17780
X24130Y17780
X26670Y17780
X49530Y17780
X52070Y17780
X54610Y17780
X57150Y17780
M30