M48
;GenerationSoftware,Autodesk,EAGLE,9.7.0*%
;CreationDate,2026-05-16T04:09:09Z*%
FMAT,2
ICI,OFF
METRIC,TZ,000.000
T5C0.760
T4C0.830
T3C0.900
T2C1.016
T1C3.000
%
G90
M71
T1
X2540Y41910
X2540Y2540
X77470Y2540
X77470Y41910
T2
X30480Y19050
X33020Y19050
X35560Y19050
X38100Y19050
X40640Y19050
X43180Y19050
X45720Y19050
X48260Y19050
X58420Y41910
X55880Y41910
X53340Y41910
X50800Y41910
X48260Y41910
X45720Y41910
X43180Y41910
X40640Y41910
X38100Y41910
X35560Y41910
X33020Y41910
X30480Y41910
X27940Y41910
X25400Y41910
X22860Y41910
X20320Y41910
X17780Y41910
X15240Y41910
X12700Y41910
X10160Y41910
X10160Y5080
X10160Y7620
X12700Y5080
X12700Y7620
X15240Y5080
X15240Y7620
X17780Y5080
X17780Y7620
X20320Y5080
X20320Y7620
X22860Y5080
X22860Y7620
X25400Y5080
X25400Y7620
X27940Y5080
X27940Y7620
X30480Y5080
X30480Y7620
X33020Y5080
X33020Y7620
X35560Y5080
X35560Y7620
X38100Y5080
X38100Y7620
X40640Y5080
X40640Y7620
X43180Y5080
X43180Y7620
X45720Y5080
X45720Y7620
X48260Y5080
X48260Y7620
X50800Y5080
X50800Y7620
X53340Y5080
X53340Y7620
X55880Y5080
X55880Y7620
X58420Y5080
X58420Y7620
X10160Y19050
X12700Y19050
X15240Y19050
X17780Y19050
X20320Y19050
X22860Y19050
X25400Y19050
X27940Y19050
X50800Y19050
X53340Y19050
X55880Y19050
X58420Y19050
T3
X71120Y29330
X71120Y36830
X71120Y34330
X71120Y31830
T4
X60922Y9576
X72682Y9576
T5
X66422Y22860
X66422Y17780
X66422Y15240
X75818Y15240
X75818Y17780
X75818Y20320
X75818Y22860
X66422Y20320
M30