G04 EAGLE Gerber RS-274X export*
G75*
%MOMM*%
%FSLAX34Y34*%
%LPD*%
%INSilkscreen Top*%
%IPPOS*%
%AMOC8*
5,1,8,0,0,1.08239X$1,22.5*%
G01*
G04 Define Apertures*
%ADD10C,0.127000*%
%ADD11C,0.152400*%
%ADD12C,0.203200*%
G36*
X285119Y196088D02*
X280109Y196088D01*
X280109Y208429D01*
X284594Y208429D01*
X285120Y208417D01*
X285612Y208382D01*
X286070Y208323D01*
X286494Y208242D01*
X286885Y208136D01*
X287241Y208008D01*
X287564Y207855D01*
X287852Y207680D01*
X288107Y207481D01*
X288327Y207259D01*
X288514Y207013D01*
X288667Y206744D01*
X288785Y206451D01*
X288870Y206135D01*
X288921Y205796D01*
X288938Y205433D01*
X288928Y205165D01*
X288900Y204908D01*
X288852Y204662D01*
X288785Y204426D01*
X288699Y204202D01*
X288593Y203988D01*
X288469Y203786D01*
X288325Y203594D01*
X288164Y203416D01*
X288064Y203324D01*
X287987Y203252D01*
X287794Y203105D01*
X287585Y202972D01*
X287360Y202855D01*
X287120Y202753D01*
X286863Y202667D01*
X286591Y202596D01*
X286948Y202542D01*
X287284Y202468D01*
X287599Y202375D01*
X287894Y202262D01*
X288167Y202129D01*
X288419Y201976D01*
X288649Y201803D01*
X288746Y201714D01*
X288859Y201610D01*
X289046Y201401D01*
X289208Y201179D01*
X289345Y200943D01*
X289457Y200694D01*
X289544Y200432D01*
X289606Y200156D01*
X289644Y199867D01*
X289656Y199565D01*
X289638Y199165D01*
X289581Y198788D01*
X289488Y198433D01*
X289356Y198101D01*
X289188Y197793D01*
X288981Y197507D01*
X288738Y197244D01*
X288456Y197003D01*
X288142Y196789D01*
X287798Y196603D01*
X287425Y196446D01*
X287022Y196317D01*
X286590Y196217D01*
X286129Y196145D01*
X285639Y196102D01*
X285119Y196088D01*
G37*
%LPC*%
G36*
X285032Y197428D02*
X285402Y197437D01*
X285746Y197464D01*
X286064Y197508D01*
X286356Y197570D01*
X286623Y197650D01*
X286863Y197748D01*
X287077Y197864D01*
X287265Y197997D01*
X287429Y198148D01*
X287572Y198317D01*
X287692Y198503D01*
X287791Y198707D01*
X287867Y198928D01*
X287922Y199167D01*
X287955Y199423D01*
X287966Y199697D01*
X287954Y199961D01*
X287918Y200208D01*
X287858Y200438D01*
X287774Y200651D01*
X287666Y200847D01*
X287535Y201025D01*
X287379Y201187D01*
X287199Y201332D01*
X286996Y201460D01*
X286768Y201571D01*
X286517Y201664D01*
X286242Y201741D01*
X285942Y201801D01*
X285619Y201843D01*
X285272Y201869D01*
X284900Y201877D01*
X281782Y201877D01*
X281782Y197428D01*
X285032Y197428D01*
G37*
G36*
X284594Y203182D02*
X284918Y203190D01*
X285221Y203214D01*
X285503Y203253D01*
X285764Y203308D01*
X286004Y203379D01*
X286222Y203466D01*
X286419Y203568D01*
X286595Y203686D01*
X286750Y203820D01*
X286884Y203972D01*
X286998Y204139D01*
X287091Y204324D01*
X287163Y204526D01*
X287215Y204744D01*
X287246Y204980D01*
X287256Y205232D01*
X287246Y205473D01*
X287214Y205696D01*
X287160Y205901D01*
X287086Y206088D01*
X286990Y206258D01*
X286872Y206409D01*
X286733Y206543D01*
X286573Y206660D01*
X286393Y206760D01*
X286193Y206847D01*
X285975Y206921D01*
X285737Y206981D01*
X285480Y207028D01*
X285204Y207062D01*
X284908Y207082D01*
X284594Y207089D01*
X281782Y207089D01*
X281782Y203182D01*
X284594Y203182D01*
G37*
%LPD*%
G36*
X324738Y196088D02*
X315016Y196088D01*
X315016Y208429D01*
X324379Y208429D01*
X324379Y207062D01*
X316689Y207062D01*
X316689Y203104D01*
X323853Y203104D01*
X323853Y201755D01*
X316689Y201755D01*
X316689Y197454D01*
X324738Y197454D01*
X324738Y196088D01*
G37*
G36*
X306978Y195913D02*
X306605Y195921D01*
X306244Y195947D01*
X305896Y195990D01*
X305559Y196051D01*
X305234Y196128D01*
X304922Y196223D01*
X304621Y196335D01*
X304333Y196465D01*
X304058Y196610D01*
X303800Y196772D01*
X303557Y196949D01*
X303330Y197141D01*
X303119Y197349D01*
X302924Y197573D01*
X302745Y197812D01*
X302581Y198067D01*
X302435Y198336D01*
X302309Y198618D01*
X302202Y198912D01*
X302115Y199219D01*
X302047Y199539D01*
X301998Y199871D01*
X301969Y200215D01*
X301959Y200572D01*
X301959Y208429D01*
X303632Y208429D01*
X303632Y200713D01*
X303646Y200303D01*
X303686Y199918D01*
X303753Y199559D01*
X303847Y199226D01*
X303968Y198918D01*
X304115Y198635D01*
X304289Y198378D01*
X304491Y198146D01*
X304717Y197941D01*
X304967Y197763D01*
X305241Y197613D01*
X305539Y197489D01*
X305861Y197394D01*
X306207Y197325D01*
X306576Y197284D01*
X306969Y197270D01*
X307374Y197285D01*
X307755Y197327D01*
X308113Y197398D01*
X308448Y197497D01*
X308760Y197625D01*
X309049Y197780D01*
X309315Y197964D01*
X309557Y198177D01*
X309774Y198417D01*
X309962Y198682D01*
X310120Y198974D01*
X310250Y199293D01*
X310351Y199637D01*
X310424Y200007D01*
X310467Y200404D01*
X310481Y200826D01*
X310481Y208429D01*
X312146Y208429D01*
X312146Y200730D01*
X312136Y200362D01*
X312106Y200007D01*
X312056Y199665D01*
X311987Y199335D01*
X311897Y199019D01*
X311788Y198715D01*
X311659Y198424D01*
X311511Y198146D01*
X311344Y197883D01*
X311160Y197635D01*
X310960Y197404D01*
X310744Y197188D01*
X310512Y196989D01*
X310262Y196805D01*
X309997Y196638D01*
X309715Y196487D01*
X309418Y196352D01*
X309109Y196236D01*
X308786Y196137D01*
X308451Y196056D01*
X308102Y195994D01*
X307740Y195949D01*
X307366Y195922D01*
X306978Y195913D01*
G37*
G36*
X299987Y196088D02*
X292078Y196088D01*
X292078Y208429D01*
X293751Y208429D01*
X293751Y197454D01*
X299987Y197454D01*
X299987Y196088D01*
G37*
G36*
X517175Y375237D02*
X516708Y375249D01*
X516257Y375285D01*
X515823Y375345D01*
X515405Y375430D01*
X515003Y375538D01*
X514617Y375670D01*
X514248Y375827D01*
X513895Y376008D01*
X513560Y376211D01*
X513246Y376436D01*
X512952Y376682D01*
X512679Y376950D01*
X512426Y377240D01*
X512193Y377550D01*
X511980Y377883D01*
X511789Y378237D01*
X511618Y378609D01*
X511470Y378996D01*
X511346Y379399D01*
X511243Y379816D01*
X511164Y380249D01*
X511107Y380698D01*
X511073Y381161D01*
X511062Y381639D01*
X511068Y382004D01*
X511087Y382359D01*
X511119Y382704D01*
X511163Y383039D01*
X511220Y383363D01*
X511289Y383678D01*
X511372Y383982D01*
X511467Y384277D01*
X511574Y384561D01*
X511695Y384835D01*
X511827Y385099D01*
X511973Y385353D01*
X512302Y385831D01*
X512682Y386268D01*
X513107Y386659D01*
X513334Y386835D01*
X513571Y386998D01*
X513819Y387148D01*
X514076Y387285D01*
X514343Y387409D01*
X514620Y387520D01*
X514907Y387617D01*
X515203Y387702D01*
X515510Y387774D01*
X515827Y387832D01*
X516153Y387878D01*
X516490Y387911D01*
X516836Y387930D01*
X517193Y387937D01*
X517656Y387925D01*
X518103Y387890D01*
X518535Y387831D01*
X518951Y387750D01*
X519351Y387644D01*
X519736Y387515D01*
X520106Y387363D01*
X520459Y387188D01*
X520795Y386990D01*
X521111Y386771D01*
X521406Y386531D01*
X521680Y386269D01*
X521934Y385987D01*
X522168Y385683D01*
X522382Y385358D01*
X522575Y385011D01*
X522746Y384646D01*
X522895Y384265D01*
X523020Y383868D01*
X523123Y383455D01*
X523203Y383025D01*
X523260Y382579D01*
X523295Y382117D01*
X523306Y381639D01*
X523294Y381163D01*
X523260Y380702D01*
X523202Y380255D01*
X523121Y379824D01*
X523017Y379408D01*
X522890Y379007D01*
X522739Y378621D01*
X522566Y378250D01*
X522371Y377897D01*
X522156Y377565D01*
X521920Y377254D01*
X521665Y376964D01*
X521389Y376696D01*
X521094Y376448D01*
X520778Y376222D01*
X520442Y376016D01*
X520088Y375834D01*
X519719Y375675D01*
X519334Y375541D01*
X518933Y375432D01*
X518517Y375346D01*
X518085Y375286D01*
X517638Y375249D01*
X517175Y375237D01*
G37*
%LPC*%
G36*
X517175Y376594D02*
X517694Y376615D01*
X518181Y376677D01*
X518638Y376780D01*
X519064Y376924D01*
X519458Y377109D01*
X519821Y377336D01*
X520154Y377604D01*
X520455Y377913D01*
X520723Y378259D01*
X520955Y378640D01*
X521152Y379055D01*
X521312Y379503D01*
X521437Y379986D01*
X521527Y380503D01*
X521580Y381054D01*
X521598Y381639D01*
X521580Y382200D01*
X521526Y382729D01*
X521436Y383228D01*
X521310Y383695D01*
X521148Y384132D01*
X520950Y384538D01*
X520716Y384913D01*
X520446Y385257D01*
X520144Y385565D01*
X519811Y385831D01*
X519449Y386057D01*
X519057Y386242D01*
X518635Y386386D01*
X518184Y386488D01*
X517703Y386550D01*
X517193Y386570D01*
X516678Y386550D01*
X516193Y386489D01*
X515738Y386388D01*
X515314Y386246D01*
X514919Y386064D01*
X514555Y385841D01*
X514221Y385578D01*
X513917Y385274D01*
X513646Y384934D01*
X513411Y384561D01*
X513212Y384155D01*
X513050Y383717D01*
X512923Y383247D01*
X512833Y382743D01*
X512779Y382208D01*
X512761Y381639D01*
X512779Y381074D01*
X512834Y380539D01*
X512925Y380033D01*
X513053Y379558D01*
X513217Y379113D01*
X513418Y378697D01*
X513656Y378312D01*
X513930Y377956D01*
X514236Y377637D01*
X514571Y377361D01*
X514934Y377126D01*
X515326Y376935D01*
X515746Y376786D01*
X516194Y376680D01*
X516670Y376616D01*
X517175Y376594D01*
G37*
%LPD*%
G36*
X568019Y375237D02*
X567552Y375249D01*
X567101Y375285D01*
X566667Y375345D01*
X566248Y375430D01*
X565847Y375538D01*
X565461Y375670D01*
X565092Y375827D01*
X564739Y376008D01*
X564404Y376211D01*
X564090Y376436D01*
X563796Y376682D01*
X563522Y376950D01*
X563269Y377240D01*
X563037Y377550D01*
X562824Y377883D01*
X562632Y378237D01*
X562462Y378609D01*
X562314Y378996D01*
X562189Y379399D01*
X562087Y379816D01*
X562008Y380249D01*
X561951Y380698D01*
X561917Y381161D01*
X561905Y381639D01*
X561912Y382004D01*
X561931Y382359D01*
X561962Y382704D01*
X562007Y383039D01*
X562064Y383363D01*
X562133Y383678D01*
X562215Y383982D01*
X562310Y384277D01*
X562418Y384561D01*
X562538Y384835D01*
X562671Y385099D01*
X562817Y385353D01*
X563146Y385831D01*
X563526Y386268D01*
X563951Y386659D01*
X564178Y386835D01*
X564415Y386998D01*
X564662Y387148D01*
X564919Y387285D01*
X565187Y387409D01*
X565463Y387520D01*
X565750Y387617D01*
X566047Y387702D01*
X566354Y387774D01*
X566671Y387832D01*
X566997Y387878D01*
X567334Y387911D01*
X567680Y387930D01*
X568036Y387937D01*
X568499Y387925D01*
X568947Y387890D01*
X569378Y387831D01*
X569795Y387750D01*
X570195Y387644D01*
X570580Y387515D01*
X570949Y387363D01*
X571303Y387188D01*
X571639Y386990D01*
X571954Y386771D01*
X572249Y386531D01*
X572524Y386269D01*
X572778Y385987D01*
X573012Y385683D01*
X573225Y385358D01*
X573418Y385011D01*
X573590Y384646D01*
X573738Y384265D01*
X573864Y383868D01*
X573967Y383455D01*
X574047Y383025D01*
X574104Y382579D01*
X574138Y382117D01*
X574150Y381639D01*
X574138Y381163D01*
X574104Y380702D01*
X574046Y380255D01*
X573965Y379824D01*
X573861Y379408D01*
X573733Y379007D01*
X573583Y378621D01*
X573410Y378250D01*
X573215Y377897D01*
X572999Y377565D01*
X572764Y377254D01*
X572509Y376964D01*
X572233Y376696D01*
X571937Y376448D01*
X571622Y376222D01*
X571286Y376016D01*
X570932Y375834D01*
X570563Y375675D01*
X570178Y375541D01*
X569777Y375432D01*
X569361Y375346D01*
X568929Y375286D01*
X568482Y375249D01*
X568019Y375237D01*
G37*
%LPC*%
G36*
X568019Y376594D02*
X568538Y376615D01*
X569025Y376677D01*
X569482Y376780D01*
X569907Y376924D01*
X570302Y377109D01*
X570665Y377336D01*
X570998Y377604D01*
X571299Y377913D01*
X571567Y378259D01*
X571799Y378640D01*
X571995Y379055D01*
X572156Y379503D01*
X572281Y379986D01*
X572370Y380503D01*
X572424Y381054D01*
X572442Y381639D01*
X572424Y382200D01*
X572370Y382729D01*
X572280Y383228D01*
X572154Y383695D01*
X571992Y384132D01*
X571794Y384538D01*
X571560Y384913D01*
X571290Y385257D01*
X570987Y385565D01*
X570655Y385831D01*
X570293Y386057D01*
X569901Y386242D01*
X569479Y386386D01*
X569028Y386488D01*
X568547Y386550D01*
X568036Y386570D01*
X567521Y386550D01*
X567037Y386489D01*
X566582Y386388D01*
X566158Y386246D01*
X565763Y386064D01*
X565399Y385841D01*
X565065Y385578D01*
X564761Y385274D01*
X564490Y384934D01*
X564255Y384561D01*
X564056Y384155D01*
X563894Y383717D01*
X563767Y383247D01*
X563677Y382743D01*
X563623Y382208D01*
X563604Y381639D01*
X563623Y381074D01*
X563678Y380539D01*
X563769Y380033D01*
X563897Y379558D01*
X564061Y379113D01*
X564262Y378697D01*
X564500Y378312D01*
X564774Y377956D01*
X565080Y377637D01*
X565415Y377361D01*
X565778Y377126D01*
X566170Y376935D01*
X566589Y376786D01*
X567038Y376680D01*
X567514Y376616D01*
X568019Y376594D01*
G37*
%LPD*%
G36*
X551231Y375412D02*
X549558Y375412D01*
X549558Y387753D01*
X555365Y387753D01*
X555872Y387738D01*
X556348Y387694D01*
X556795Y387622D01*
X557212Y387520D01*
X557600Y387388D01*
X557958Y387228D01*
X558286Y387039D01*
X558584Y386820D01*
X558850Y386575D01*
X559080Y386308D01*
X559275Y386018D01*
X559435Y385704D01*
X559559Y385368D01*
X559647Y385009D01*
X559701Y384628D01*
X559718Y384223D01*
X559706Y383886D01*
X559668Y383563D01*
X559606Y383253D01*
X559518Y382957D01*
X559405Y382675D01*
X559268Y382407D01*
X559105Y382152D01*
X558917Y381911D01*
X558707Y381687D01*
X558478Y381486D01*
X558230Y381305D01*
X558119Y381239D01*
X557963Y381147D01*
X557677Y381010D01*
X557372Y380894D01*
X557048Y380801D01*
X556705Y380728D01*
X558197Y378465D01*
X560209Y375412D01*
X558282Y375412D01*
X555076Y380536D01*
X551231Y380536D01*
X551231Y375412D01*
G37*
%LPC*%
G36*
X555269Y381858D02*
X555590Y381868D01*
X555893Y381897D01*
X556177Y381945D01*
X556442Y382013D01*
X556688Y382099D01*
X556915Y382206D01*
X557124Y382331D01*
X557314Y382476D01*
X557483Y382638D01*
X557630Y382815D01*
X557754Y383008D01*
X557856Y383217D01*
X557935Y383441D01*
X557992Y383680D01*
X558025Y383935D01*
X558037Y384206D01*
X558025Y384467D01*
X557991Y384712D01*
X557934Y384942D01*
X557854Y385155D01*
X557751Y385352D01*
X557625Y385533D01*
X557477Y385699D01*
X557305Y385848D01*
X557112Y385980D01*
X556899Y386095D01*
X556666Y386192D01*
X556413Y386272D01*
X556140Y386333D01*
X555846Y386377D01*
X555533Y386404D01*
X555199Y386413D01*
X551231Y386413D01*
X551231Y381858D01*
X555269Y381858D01*
G37*
%LPD*%
G36*
X527110Y375412D02*
X525621Y375412D01*
X525621Y387753D01*
X527565Y387753D01*
X534239Y377172D01*
X534161Y378653D01*
X534134Y379660D01*
X534134Y387753D01*
X535641Y387753D01*
X535641Y375412D01*
X533626Y375412D01*
X527022Y385922D01*
X527066Y385073D01*
X527110Y383610D01*
X527110Y375412D01*
G37*
G36*
X504171Y375237D02*
X503713Y375249D01*
X503270Y375285D01*
X502843Y375346D01*
X502432Y375431D01*
X502036Y375540D01*
X501656Y375673D01*
X501292Y375830D01*
X500944Y376012D01*
X500613Y376216D01*
X500303Y376441D01*
X500013Y376687D01*
X499744Y376954D01*
X499494Y377241D01*
X499265Y377549D01*
X499057Y377878D01*
X498868Y378228D01*
X498701Y378596D01*
X498556Y378981D01*
X498433Y379383D01*
X498333Y379801D01*
X498255Y380236D01*
X498199Y380687D01*
X498165Y381155D01*
X498154Y381639D01*
X498160Y382003D01*
X498179Y382357D01*
X498210Y382701D01*
X498254Y383035D01*
X498310Y383359D01*
X498378Y383673D01*
X498459Y383977D01*
X498553Y384271D01*
X498659Y384555D01*
X498777Y384829D01*
X499051Y385347D01*
X499375Y385826D01*
X499748Y386264D01*
X500166Y386656D01*
X500622Y386996D01*
X500864Y387146D01*
X501116Y387283D01*
X501378Y387407D01*
X501649Y387518D01*
X501929Y387617D01*
X502220Y387701D01*
X502520Y387773D01*
X502829Y387832D01*
X503148Y387878D01*
X503477Y387911D01*
X503815Y387930D01*
X504163Y387937D01*
X504645Y387925D01*
X505107Y387889D01*
X505549Y387828D01*
X505971Y387744D01*
X506373Y387636D01*
X506754Y387503D01*
X507115Y387347D01*
X507456Y387166D01*
X507775Y386962D01*
X508073Y386734D01*
X508349Y386483D01*
X508603Y386209D01*
X508835Y385912D01*
X509045Y385591D01*
X509234Y385247D01*
X509400Y384880D01*
X507815Y384354D01*
X507699Y384616D01*
X507568Y384861D01*
X507420Y385091D01*
X507255Y385305D01*
X507075Y385503D01*
X506878Y385685D01*
X506665Y385851D01*
X506435Y386001D01*
X506192Y386135D01*
X505938Y386250D01*
X505673Y386348D01*
X505396Y386428D01*
X505109Y386490D01*
X504810Y386535D01*
X504501Y386561D01*
X504180Y386570D01*
X503682Y386550D01*
X503212Y386488D01*
X502771Y386385D01*
X502358Y386241D01*
X501974Y386055D01*
X501618Y385829D01*
X501291Y385561D01*
X500992Y385252D01*
X500725Y384907D01*
X500494Y384532D01*
X500298Y384126D01*
X500138Y383690D01*
X500013Y383223D01*
X499924Y382726D01*
X499871Y382198D01*
X499853Y381639D01*
X499872Y381086D01*
X499927Y380561D01*
X500020Y380063D01*
X500150Y379593D01*
X500317Y379151D01*
X500521Y378737D01*
X500762Y378350D01*
X501040Y377991D01*
X501350Y377668D01*
X501686Y377388D01*
X502048Y377151D01*
X502436Y376957D01*
X502850Y376806D01*
X503291Y376698D01*
X503757Y376633D01*
X504250Y376612D01*
X504569Y376622D01*
X504878Y376652D01*
X505177Y376702D01*
X505466Y376772D01*
X505745Y376863D01*
X506013Y376973D01*
X506272Y377103D01*
X506521Y377253D01*
X506759Y377424D01*
X506988Y377614D01*
X507206Y377825D01*
X507415Y378055D01*
X507613Y378306D01*
X507801Y378577D01*
X507979Y378867D01*
X508148Y379178D01*
X509514Y378495D01*
X509314Y378108D01*
X509094Y377746D01*
X508856Y377407D01*
X508598Y377091D01*
X508320Y376800D01*
X508024Y376533D01*
X507708Y376289D01*
X507373Y376069D01*
X507021Y375874D01*
X506655Y375705D01*
X506276Y375562D01*
X505882Y375445D01*
X505475Y375354D01*
X505055Y375289D01*
X504620Y375250D01*
X504171Y375237D01*
G37*
G36*
X543424Y375412D02*
X541760Y375412D01*
X541760Y386386D01*
X537521Y386386D01*
X537521Y387753D01*
X547664Y387753D01*
X547664Y386386D01*
X543424Y386386D01*
X543424Y375412D01*
G37*
G36*
X584374Y375412D02*
X576465Y375412D01*
X576465Y387753D01*
X578138Y387753D01*
X578138Y376778D01*
X584374Y376778D01*
X584374Y375412D01*
G37*
G36*
X385831Y375412D02*
X384158Y375412D01*
X384158Y387753D01*
X389965Y387753D01*
X390472Y387738D01*
X390948Y387694D01*
X391395Y387622D01*
X391812Y387520D01*
X392200Y387388D01*
X392558Y387228D01*
X392886Y387039D01*
X393184Y386820D01*
X393450Y386575D01*
X393680Y386308D01*
X393875Y386018D01*
X394035Y385704D01*
X394159Y385368D01*
X394247Y385009D01*
X394301Y384628D01*
X394318Y384223D01*
X394306Y383886D01*
X394268Y383563D01*
X394206Y383253D01*
X394118Y382957D01*
X394005Y382675D01*
X393868Y382407D01*
X393705Y382152D01*
X393517Y381911D01*
X393307Y381687D01*
X393078Y381486D01*
X392830Y381305D01*
X392719Y381239D01*
X392563Y381147D01*
X392277Y381010D01*
X391972Y380894D01*
X391648Y380801D01*
X391305Y380728D01*
X392797Y378465D01*
X394809Y375412D01*
X392882Y375412D01*
X389676Y380536D01*
X385831Y380536D01*
X385831Y375412D01*
G37*
%LPC*%
G36*
X389869Y381858D02*
X390190Y381868D01*
X390493Y381897D01*
X390777Y381945D01*
X391042Y382013D01*
X391288Y382099D01*
X391515Y382206D01*
X391724Y382331D01*
X391914Y382476D01*
X392083Y382638D01*
X392230Y382815D01*
X392354Y383008D01*
X392456Y383217D01*
X392535Y383441D01*
X392592Y383680D01*
X392625Y383935D01*
X392637Y384206D01*
X392625Y384467D01*
X392591Y384712D01*
X392534Y384942D01*
X392454Y385155D01*
X392351Y385352D01*
X392225Y385533D01*
X392077Y385699D01*
X391905Y385848D01*
X391712Y385980D01*
X391499Y386095D01*
X391266Y386192D01*
X391013Y386272D01*
X390740Y386333D01*
X390446Y386377D01*
X390133Y386404D01*
X389799Y386413D01*
X385831Y386413D01*
X385831Y381858D01*
X389869Y381858D01*
G37*
%LPD*%
G36*
X422554Y375412D02*
X421065Y375412D01*
X421065Y387753D01*
X423009Y387753D01*
X429683Y377172D01*
X429604Y378653D01*
X429578Y379660D01*
X429578Y387753D01*
X431084Y387753D01*
X431084Y375412D01*
X429070Y375412D01*
X422466Y385922D01*
X422510Y385073D01*
X422554Y383610D01*
X422554Y375412D01*
G37*
G36*
X375870Y375237D02*
X375395Y375249D01*
X374936Y375285D01*
X374494Y375345D01*
X374068Y375430D01*
X373659Y375538D01*
X373267Y375670D01*
X372892Y375827D01*
X372533Y376008D01*
X372193Y376211D01*
X371874Y376435D01*
X371575Y376681D01*
X371297Y376948D01*
X371040Y377236D01*
X370803Y377546D01*
X370587Y377876D01*
X370392Y378228D01*
X370218Y378598D01*
X370068Y378985D01*
X369941Y379387D01*
X369837Y379806D01*
X369756Y380240D01*
X369698Y380690D01*
X369663Y381157D01*
X369652Y381639D01*
X369658Y382010D01*
X369677Y382369D01*
X369708Y382718D01*
X369752Y383057D01*
X369809Y383384D01*
X369878Y383702D01*
X369960Y384008D01*
X370055Y384304D01*
X370162Y384589D01*
X370281Y384864D01*
X370413Y385128D01*
X370558Y385382D01*
X370716Y385625D01*
X370885Y385857D01*
X371263Y386290D01*
X371686Y386676D01*
X371913Y386850D01*
X372151Y387011D01*
X372398Y387158D01*
X372655Y387294D01*
X372923Y387416D01*
X373201Y387525D01*
X373489Y387622D01*
X373787Y387705D01*
X374096Y387776D01*
X374415Y387834D01*
X374744Y387879D01*
X375083Y387911D01*
X375432Y387930D01*
X375791Y387937D01*
X376292Y387926D01*
X376768Y387893D01*
X377220Y387839D01*
X377648Y387764D01*
X378052Y387666D01*
X378432Y387548D01*
X378788Y387407D01*
X379120Y387245D01*
X379430Y387059D01*
X379722Y386847D01*
X379996Y386609D01*
X380252Y386345D01*
X380489Y386055D01*
X380708Y385739D01*
X380908Y385397D01*
X381090Y385029D01*
X379496Y384556D01*
X379359Y384810D01*
X379209Y385046D01*
X379046Y385264D01*
X378871Y385465D01*
X378684Y385647D01*
X378484Y385812D01*
X378271Y385959D01*
X378047Y386089D01*
X377809Y386202D01*
X377556Y386299D01*
X377290Y386382D01*
X377010Y386450D01*
X376715Y386503D01*
X376407Y386540D01*
X376084Y386563D01*
X375748Y386570D01*
X375229Y386550D01*
X374742Y386490D01*
X374286Y386389D01*
X373862Y386247D01*
X373470Y386066D01*
X373109Y385844D01*
X372779Y385581D01*
X372481Y385279D01*
X372216Y384939D01*
X371986Y384567D01*
X371792Y384161D01*
X371633Y383723D01*
X371510Y383251D01*
X371421Y382747D01*
X371368Y382210D01*
X371351Y381639D01*
X371370Y381070D01*
X371426Y380532D01*
X371520Y380024D01*
X371651Y379547D01*
X371820Y379101D01*
X372026Y378686D01*
X372269Y378301D01*
X372551Y377948D01*
X372865Y377630D01*
X373208Y377356D01*
X373580Y377123D01*
X373981Y376933D01*
X374410Y376785D01*
X374868Y376679D01*
X375355Y376616D01*
X375870Y376594D01*
X376464Y376617D01*
X377038Y376686D01*
X377592Y376801D01*
X378126Y376962D01*
X378624Y377163D01*
X379073Y377396D01*
X379471Y377662D01*
X379820Y377961D01*
X379820Y380185D01*
X376133Y380185D01*
X376133Y381587D01*
X381362Y381587D01*
X381362Y377330D01*
X381110Y377088D01*
X380844Y376859D01*
X380564Y376645D01*
X380270Y376444D01*
X379963Y376258D01*
X379642Y376086D01*
X379306Y375928D01*
X378958Y375784D01*
X378598Y375656D01*
X378231Y375545D01*
X377856Y375451D01*
X377474Y375374D01*
X377084Y375314D01*
X376687Y375271D01*
X376282Y375245D01*
X375870Y375237D01*
G37*
G36*
X406849Y375412D02*
X397127Y375412D01*
X397127Y387753D01*
X406490Y387753D01*
X406490Y386386D01*
X398800Y386386D01*
X398800Y382428D01*
X405965Y382428D01*
X405965Y381079D01*
X398800Y381079D01*
X398800Y376778D01*
X406849Y376778D01*
X406849Y375412D01*
G37*
G36*
X418818Y375412D02*
X409096Y375412D01*
X409096Y387753D01*
X418459Y387753D01*
X418459Y386386D01*
X410769Y386386D01*
X410769Y382428D01*
X417933Y382428D01*
X417933Y381079D01*
X410769Y381079D01*
X410769Y376778D01*
X418818Y376778D01*
X418818Y375412D01*
G37*
G36*
X210571Y375415D02*
X208899Y375415D01*
X208899Y387756D01*
X214092Y387756D01*
X214597Y387741D01*
X215072Y387695D01*
X215517Y387619D01*
X215934Y387513D01*
X216321Y387376D01*
X216679Y387209D01*
X217007Y387012D01*
X217307Y386784D01*
X217574Y386528D01*
X217805Y386248D01*
X218001Y385942D01*
X218161Y385612D01*
X218285Y385257D01*
X218374Y384877D01*
X218428Y384472D01*
X218445Y384042D01*
X218428Y383616D01*
X218374Y383211D01*
X218285Y382829D01*
X218160Y382470D01*
X217999Y382133D01*
X217802Y381819D01*
X217570Y381527D01*
X217302Y381257D01*
X217004Y381015D01*
X216680Y380805D01*
X216330Y380627D01*
X215955Y380482D01*
X215554Y380369D01*
X215127Y380288D01*
X214675Y380240D01*
X214198Y380224D01*
X210571Y380224D01*
X210571Y375415D01*
G37*
%LPC*%
G36*
X213961Y381546D02*
X214300Y381556D01*
X214618Y381585D01*
X214914Y381633D01*
X215187Y381701D01*
X215439Y381788D01*
X215669Y381895D01*
X215877Y382020D01*
X216063Y382166D01*
X216227Y382330D01*
X216370Y382514D01*
X216490Y382718D01*
X216589Y382940D01*
X216665Y383182D01*
X216720Y383444D01*
X216753Y383725D01*
X216764Y384025D01*
X216753Y384314D01*
X216719Y384585D01*
X216663Y384837D01*
X216584Y385071D01*
X216483Y385286D01*
X216360Y385482D01*
X216214Y385659D01*
X216046Y385818D01*
X215855Y385958D01*
X215642Y386080D01*
X215406Y386182D01*
X215148Y386266D01*
X214867Y386332D01*
X214564Y386378D01*
X214239Y386406D01*
X213891Y386416D01*
X210571Y386416D01*
X210571Y381546D01*
X213961Y381546D01*
G37*
%LPD*%
G36*
X228496Y375415D02*
X220762Y375415D01*
X220762Y376755D01*
X223907Y376755D01*
X223907Y386249D01*
X221121Y384261D01*
X221121Y385750D01*
X224038Y387756D01*
X225492Y387756D01*
X225492Y376755D01*
X228496Y376755D01*
X228496Y375415D01*
G37*
G36*
X202461Y375240D02*
X202079Y375253D01*
X201717Y375291D01*
X201375Y375354D01*
X201053Y375442D01*
X200750Y375556D01*
X200468Y375696D01*
X200205Y375860D01*
X199963Y376050D01*
X199740Y376265D01*
X199537Y376506D01*
X199354Y376772D01*
X199191Y377063D01*
X199048Y377379D01*
X198925Y377721D01*
X198822Y378088D01*
X198739Y378481D01*
X200377Y378752D01*
X200422Y378505D01*
X200480Y378272D01*
X200550Y378053D01*
X200633Y377848D01*
X200728Y377657D01*
X200835Y377479D01*
X200954Y377316D01*
X201086Y377167D01*
X201228Y377033D01*
X201379Y376918D01*
X201539Y376820D01*
X201708Y376740D01*
X201885Y376678D01*
X202071Y376633D01*
X202266Y376606D01*
X202470Y376597D01*
X202692Y376607D01*
X202901Y376637D01*
X203099Y376686D01*
X203284Y376754D01*
X203458Y376842D01*
X203619Y376950D01*
X203769Y377077D01*
X203906Y377224D01*
X204029Y377389D01*
X204136Y377573D01*
X204226Y377775D01*
X204300Y377996D01*
X204358Y378234D01*
X204399Y378491D01*
X204424Y378766D01*
X204432Y379059D01*
X204432Y386390D01*
X202058Y386390D01*
X202058Y387756D01*
X206096Y387756D01*
X206096Y379094D01*
X206081Y378657D01*
X206035Y378244D01*
X205959Y377855D01*
X205853Y377490D01*
X205716Y377149D01*
X205549Y376831D01*
X205352Y376538D01*
X205124Y376269D01*
X204869Y376028D01*
X204593Y375819D01*
X204294Y375642D01*
X203972Y375497D01*
X203628Y375385D01*
X203261Y375304D01*
X202872Y375256D01*
X202461Y375240D01*
G37*
G36*
X326860Y82550D02*
X325187Y82550D01*
X325187Y94891D01*
X330381Y94891D01*
X330885Y94876D01*
X331360Y94830D01*
X331806Y94754D01*
X332222Y94648D01*
X332610Y94511D01*
X332967Y94344D01*
X333296Y94146D01*
X333595Y93919D01*
X333862Y93663D01*
X334093Y93383D01*
X334289Y93077D01*
X334449Y92747D01*
X334574Y92392D01*
X334663Y92012D01*
X334716Y91607D01*
X334734Y91177D01*
X334716Y90750D01*
X334662Y90346D01*
X334573Y89964D01*
X334448Y89605D01*
X334287Y89268D01*
X334091Y88954D01*
X333859Y88662D01*
X333591Y88392D01*
X333292Y88150D01*
X332968Y87940D01*
X332618Y87762D01*
X332243Y87617D01*
X331842Y87504D01*
X331416Y87423D01*
X330964Y87375D01*
X330486Y87358D01*
X326860Y87358D01*
X326860Y82550D01*
G37*
%LPC*%
G36*
X330249Y88681D02*
X330589Y88691D01*
X330906Y88720D01*
X331202Y88768D01*
X331476Y88836D01*
X331728Y88923D01*
X331957Y89030D01*
X332165Y89155D01*
X332352Y89301D01*
X332516Y89465D01*
X332658Y89649D01*
X332779Y89853D01*
X332877Y90075D01*
X332954Y90317D01*
X333008Y90579D01*
X333041Y90859D01*
X333052Y91160D01*
X333041Y91449D01*
X333007Y91720D01*
X332951Y91972D01*
X332873Y92206D01*
X332772Y92421D01*
X332648Y92617D01*
X332502Y92794D01*
X332334Y92953D01*
X332143Y93093D01*
X331930Y93214D01*
X331694Y93317D01*
X331436Y93401D01*
X331156Y93467D01*
X330853Y93513D01*
X330527Y93541D01*
X330179Y93551D01*
X326860Y93551D01*
X326860Y88681D01*
X330249Y88681D01*
G37*
%LPD*%
G36*
X344758Y82550D02*
X336587Y82550D01*
X336587Y83662D01*
X336822Y84160D01*
X337082Y84627D01*
X337367Y85064D01*
X337677Y85471D01*
X338003Y85854D01*
X338337Y86218D01*
X338680Y86563D01*
X339030Y86890D01*
X339736Y87502D01*
X340436Y88068D01*
X341098Y88611D01*
X341693Y89154D01*
X341960Y89429D01*
X342200Y89710D01*
X342413Y89998D01*
X342599Y90293D01*
X342751Y90600D01*
X342859Y90928D01*
X342924Y91275D01*
X342945Y91641D01*
X342936Y91888D01*
X342908Y92121D01*
X342861Y92339D01*
X342796Y92543D01*
X342713Y92733D01*
X342610Y92909D01*
X342489Y93071D01*
X342350Y93218D01*
X342193Y93349D01*
X342023Y93463D01*
X341838Y93559D01*
X341638Y93638D01*
X341424Y93700D01*
X341195Y93743D01*
X340952Y93770D01*
X340694Y93778D01*
X340448Y93770D01*
X340213Y93744D01*
X339989Y93701D01*
X339776Y93642D01*
X339574Y93565D01*
X339383Y93471D01*
X339203Y93359D01*
X339035Y93231D01*
X338880Y93087D01*
X338742Y92930D01*
X338621Y92758D01*
X338517Y92573D01*
X338429Y92374D01*
X338359Y92161D01*
X338305Y91934D01*
X338268Y91694D01*
X336657Y91843D01*
X336715Y92203D01*
X336801Y92545D01*
X336915Y92868D01*
X337058Y93172D01*
X337230Y93457D01*
X337429Y93723D01*
X337657Y93970D01*
X337913Y94199D01*
X338193Y94404D01*
X338493Y94582D01*
X338812Y94733D01*
X339149Y94856D01*
X339507Y94952D01*
X339883Y95020D01*
X340279Y95061D01*
X340694Y95075D01*
X341147Y95061D01*
X341573Y95020D01*
X341972Y94951D01*
X342344Y94855D01*
X342689Y94731D01*
X343007Y94580D01*
X343298Y94401D01*
X343563Y94194D01*
X343798Y93963D01*
X344001Y93708D01*
X344174Y93430D01*
X344315Y93129D01*
X344425Y92805D01*
X344503Y92458D01*
X344550Y92087D01*
X344566Y91694D01*
X344545Y91335D01*
X344483Y90978D01*
X344381Y90622D01*
X344237Y90266D01*
X344053Y89912D01*
X343829Y89557D01*
X343565Y89202D01*
X343261Y88847D01*
X342863Y88444D01*
X342317Y87943D01*
X341623Y87345D01*
X340782Y86649D01*
X340304Y86247D01*
X339878Y85866D01*
X339503Y85505D01*
X339179Y85164D01*
X338902Y84837D01*
X338667Y84515D01*
X338473Y84200D01*
X338321Y83890D01*
X344758Y83890D01*
X344758Y82550D01*
G37*
G36*
X318750Y82375D02*
X318368Y82388D01*
X318005Y82425D01*
X317663Y82489D01*
X317341Y82577D01*
X317039Y82691D01*
X316756Y82831D01*
X316494Y82995D01*
X316251Y83185D01*
X316028Y83400D01*
X315826Y83641D01*
X315643Y83907D01*
X315480Y84198D01*
X315337Y84514D01*
X315214Y84856D01*
X315110Y85223D01*
X315027Y85615D01*
X316665Y85887D01*
X316711Y85640D01*
X316768Y85407D01*
X316839Y85188D01*
X316921Y84983D01*
X317016Y84792D01*
X317123Y84614D01*
X317243Y84451D01*
X317374Y84302D01*
X317517Y84168D01*
X317668Y84053D01*
X317828Y83955D01*
X317996Y83875D01*
X318174Y83812D01*
X318360Y83768D01*
X318555Y83741D01*
X318758Y83732D01*
X318980Y83742D01*
X319190Y83772D01*
X319387Y83820D01*
X319573Y83889D01*
X319746Y83977D01*
X319908Y84085D01*
X320057Y84212D01*
X320195Y84359D01*
X320318Y84524D01*
X320425Y84708D01*
X320515Y84910D01*
X320589Y85130D01*
X320646Y85369D01*
X320687Y85626D01*
X320712Y85900D01*
X320720Y86194D01*
X320720Y93524D01*
X318347Y93524D01*
X318347Y94891D01*
X322384Y94891D01*
X322384Y86229D01*
X322369Y85792D01*
X322324Y85379D01*
X322248Y84990D01*
X322141Y84625D01*
X322005Y84284D01*
X321837Y83966D01*
X321640Y83673D01*
X321412Y83404D01*
X321158Y83163D01*
X320881Y82954D01*
X320582Y82777D01*
X320260Y82632D01*
X319916Y82520D01*
X319550Y82439D01*
X319161Y82391D01*
X318750Y82375D01*
G37*
G36*
X106463Y196088D02*
X101847Y196088D01*
X101847Y208429D01*
X105928Y208429D01*
X106315Y208423D01*
X106690Y208404D01*
X107054Y208374D01*
X107407Y208331D01*
X107748Y208275D01*
X108079Y208208D01*
X108398Y208128D01*
X108706Y208036D01*
X109003Y207931D01*
X109288Y207815D01*
X109563Y207686D01*
X109826Y207544D01*
X110078Y207391D01*
X110319Y207225D01*
X110549Y207047D01*
X110768Y206857D01*
X110974Y206655D01*
X111167Y206443D01*
X111346Y206220D01*
X111513Y205988D01*
X111666Y205744D01*
X111806Y205491D01*
X111932Y205227D01*
X112045Y204953D01*
X112145Y204668D01*
X112231Y204373D01*
X112305Y204068D01*
X112365Y203752D01*
X112411Y203426D01*
X112444Y203089D01*
X112464Y202743D01*
X112471Y202385D01*
X112459Y201916D01*
X112425Y201461D01*
X112366Y201020D01*
X112285Y200595D01*
X112180Y200185D01*
X112052Y199790D01*
X111901Y199409D01*
X111727Y199044D01*
X111531Y198696D01*
X111315Y198370D01*
X111081Y198064D01*
X110827Y197779D01*
X110553Y197516D01*
X110260Y197273D01*
X109948Y197051D01*
X109616Y196850D01*
X109268Y196671D01*
X108906Y196517D01*
X108532Y196386D01*
X108144Y196278D01*
X107744Y196195D01*
X107330Y196136D01*
X106903Y196100D01*
X106463Y196088D01*
G37*
%LPC*%
G36*
X106270Y197428D02*
X106604Y197437D01*
X106928Y197465D01*
X107242Y197512D01*
X107545Y197577D01*
X107839Y197661D01*
X108122Y197763D01*
X108394Y197884D01*
X108657Y198024D01*
X108907Y198181D01*
X109141Y198354D01*
X109361Y198544D01*
X109566Y198751D01*
X109757Y198973D01*
X109932Y199213D01*
X110092Y199468D01*
X110238Y199740D01*
X110367Y200027D01*
X110479Y200326D01*
X110574Y200638D01*
X110651Y200962D01*
X110712Y201299D01*
X110755Y201649D01*
X110781Y202011D01*
X110789Y202385D01*
X110770Y202942D01*
X110711Y203465D01*
X110613Y203953D01*
X110475Y204408D01*
X110298Y204828D01*
X110082Y205214D01*
X109827Y205566D01*
X109533Y205884D01*
X109201Y206167D01*
X108834Y206411D01*
X108432Y206618D01*
X107994Y206788D01*
X107522Y206919D01*
X107014Y207013D01*
X106471Y207070D01*
X105893Y207089D01*
X103520Y207089D01*
X103520Y197428D01*
X106270Y197428D01*
G37*
%LPD*%
G36*
X78582Y196088D02*
X76909Y196088D01*
X76909Y208429D01*
X82716Y208429D01*
X83223Y208414D01*
X83699Y208370D01*
X84146Y208298D01*
X84563Y208196D01*
X84951Y208064D01*
X85309Y207904D01*
X85637Y207715D01*
X85935Y207496D01*
X86201Y207251D01*
X86431Y206984D01*
X86626Y206694D01*
X86786Y206380D01*
X86910Y206044D01*
X86998Y205685D01*
X87052Y205304D01*
X87069Y204899D01*
X87057Y204562D01*
X87019Y204239D01*
X86957Y203929D01*
X86869Y203633D01*
X86756Y203351D01*
X86619Y203083D01*
X86456Y202828D01*
X86268Y202587D01*
X86058Y202363D01*
X85829Y202162D01*
X85581Y201981D01*
X85470Y201915D01*
X85314Y201823D01*
X85028Y201686D01*
X84723Y201570D01*
X84399Y201477D01*
X84056Y201404D01*
X85548Y199141D01*
X87560Y196088D01*
X85633Y196088D01*
X82427Y201212D01*
X78582Y201212D01*
X78582Y196088D01*
G37*
%LPC*%
G36*
X82620Y202534D02*
X82941Y202544D01*
X83244Y202573D01*
X83528Y202621D01*
X83793Y202689D01*
X84039Y202775D01*
X84266Y202882D01*
X84475Y203007D01*
X84665Y203152D01*
X84834Y203314D01*
X84981Y203491D01*
X85105Y203684D01*
X85207Y203893D01*
X85286Y204117D01*
X85343Y204356D01*
X85376Y204611D01*
X85388Y204882D01*
X85376Y205143D01*
X85342Y205388D01*
X85285Y205618D01*
X85205Y205831D01*
X85102Y206028D01*
X84976Y206209D01*
X84828Y206375D01*
X84656Y206524D01*
X84463Y206656D01*
X84250Y206771D01*
X84017Y206868D01*
X83764Y206948D01*
X83491Y207009D01*
X83197Y207053D01*
X82884Y207080D01*
X82550Y207089D01*
X78582Y207089D01*
X78582Y202534D01*
X82620Y202534D01*
G37*
%LPD*%
G36*
X99600Y196088D02*
X89878Y196088D01*
X89878Y208429D01*
X99241Y208429D01*
X99241Y207062D01*
X91551Y207062D01*
X91551Y203104D01*
X98716Y203104D01*
X98716Y201755D01*
X91551Y201755D01*
X91551Y197454D01*
X99600Y197454D01*
X99600Y196088D01*
G37*
G36*
X499426Y195913D02*
X498959Y195925D01*
X498508Y195961D01*
X498074Y196021D01*
X497656Y196106D01*
X497254Y196214D01*
X496868Y196346D01*
X496499Y196503D01*
X496146Y196684D01*
X495811Y196887D01*
X495497Y197112D01*
X495203Y197358D01*
X494930Y197626D01*
X494677Y197916D01*
X494444Y198226D01*
X494231Y198559D01*
X494040Y198913D01*
X493869Y199285D01*
X493721Y199672D01*
X493597Y200075D01*
X493494Y200492D01*
X493415Y200925D01*
X493358Y201374D01*
X493324Y201837D01*
X493313Y202315D01*
X493319Y202680D01*
X493338Y203035D01*
X493370Y203380D01*
X493414Y203715D01*
X493471Y204039D01*
X493540Y204354D01*
X493623Y204658D01*
X493718Y204953D01*
X493825Y205237D01*
X493946Y205511D01*
X494078Y205775D01*
X494224Y206029D01*
X494553Y206507D01*
X494933Y206944D01*
X495358Y207335D01*
X495585Y207511D01*
X495822Y207674D01*
X496070Y207824D01*
X496327Y207961D01*
X496594Y208085D01*
X496871Y208196D01*
X497158Y208293D01*
X497454Y208378D01*
X497761Y208450D01*
X498078Y208508D01*
X498404Y208554D01*
X498741Y208587D01*
X499087Y208606D01*
X499444Y208613D01*
X499907Y208601D01*
X500354Y208566D01*
X500786Y208507D01*
X501202Y208426D01*
X501602Y208320D01*
X501987Y208191D01*
X502357Y208039D01*
X502710Y207864D01*
X503046Y207666D01*
X503362Y207447D01*
X503657Y207207D01*
X503931Y206945D01*
X504185Y206663D01*
X504419Y206359D01*
X504633Y206034D01*
X504826Y205687D01*
X504997Y205322D01*
X505146Y204941D01*
X505271Y204544D01*
X505374Y204131D01*
X505454Y203701D01*
X505511Y203255D01*
X505546Y202793D01*
X505557Y202315D01*
X505545Y201839D01*
X505511Y201378D01*
X505453Y200931D01*
X505372Y200500D01*
X505268Y200084D01*
X505141Y199683D01*
X504990Y199297D01*
X504817Y198926D01*
X504622Y198573D01*
X504407Y198241D01*
X504171Y197930D01*
X503916Y197640D01*
X503640Y197372D01*
X503345Y197124D01*
X503029Y196898D01*
X502693Y196692D01*
X502339Y196510D01*
X501970Y196351D01*
X501585Y196217D01*
X501184Y196108D01*
X500768Y196022D01*
X500336Y195962D01*
X499889Y195925D01*
X499426Y195913D01*
G37*
%LPC*%
G36*
X499426Y197270D02*
X499945Y197291D01*
X500432Y197353D01*
X500889Y197456D01*
X501315Y197600D01*
X501709Y197785D01*
X502072Y198012D01*
X502405Y198280D01*
X502706Y198589D01*
X502974Y198935D01*
X503206Y199316D01*
X503403Y199731D01*
X503563Y200179D01*
X503688Y200662D01*
X503778Y201179D01*
X503831Y201730D01*
X503849Y202315D01*
X503831Y202876D01*
X503777Y203405D01*
X503687Y203904D01*
X503561Y204371D01*
X503399Y204808D01*
X503201Y205214D01*
X502967Y205589D01*
X502697Y205933D01*
X502395Y206241D01*
X502062Y206507D01*
X501700Y206733D01*
X501308Y206918D01*
X500886Y207062D01*
X500435Y207164D01*
X499954Y207226D01*
X499444Y207246D01*
X498929Y207226D01*
X498444Y207165D01*
X497989Y207064D01*
X497565Y206922D01*
X497170Y206740D01*
X496806Y206517D01*
X496472Y206254D01*
X496168Y205950D01*
X495897Y205610D01*
X495662Y205237D01*
X495463Y204831D01*
X495301Y204393D01*
X495174Y203923D01*
X495084Y203419D01*
X495030Y202884D01*
X495012Y202315D01*
X495030Y201750D01*
X495085Y201215D01*
X495176Y200709D01*
X495304Y200234D01*
X495468Y199789D01*
X495669Y199373D01*
X495907Y198988D01*
X496181Y198632D01*
X496487Y198313D01*
X496822Y198037D01*
X497185Y197802D01*
X497577Y197611D01*
X497997Y197462D01*
X498445Y197356D01*
X498921Y197292D01*
X499426Y197270D01*
G37*
%LPD*%
G36*
X535482Y196088D02*
X533809Y196088D01*
X533809Y208429D01*
X535482Y208429D01*
X535482Y203209D01*
X542156Y203209D01*
X542156Y208429D01*
X543829Y208429D01*
X543829Y196088D01*
X542156Y196088D01*
X542156Y201807D01*
X535482Y201807D01*
X535482Y196088D01*
G37*
G36*
X512803Y195913D02*
X512430Y195921D01*
X512069Y195947D01*
X511721Y195990D01*
X511384Y196051D01*
X511059Y196128D01*
X510747Y196223D01*
X510446Y196335D01*
X510158Y196465D01*
X509883Y196610D01*
X509625Y196772D01*
X509382Y196949D01*
X509155Y197141D01*
X508944Y197349D01*
X508749Y197573D01*
X508570Y197812D01*
X508406Y198067D01*
X508260Y198336D01*
X508134Y198618D01*
X508027Y198912D01*
X507940Y199219D01*
X507872Y199539D01*
X507823Y199871D01*
X507794Y200215D01*
X507784Y200572D01*
X507784Y208429D01*
X509457Y208429D01*
X509457Y200713D01*
X509471Y200303D01*
X509511Y199918D01*
X509578Y199559D01*
X509672Y199226D01*
X509793Y198918D01*
X509940Y198635D01*
X510114Y198378D01*
X510316Y198146D01*
X510542Y197941D01*
X510792Y197763D01*
X511066Y197613D01*
X511364Y197489D01*
X511686Y197394D01*
X512032Y197325D01*
X512401Y197284D01*
X512794Y197270D01*
X513199Y197285D01*
X513580Y197327D01*
X513938Y197398D01*
X514273Y197497D01*
X514585Y197625D01*
X514874Y197780D01*
X515140Y197964D01*
X515382Y198177D01*
X515599Y198417D01*
X515787Y198682D01*
X515945Y198974D01*
X516075Y199293D01*
X516176Y199637D01*
X516249Y200007D01*
X516292Y200404D01*
X516306Y200826D01*
X516306Y208429D01*
X517971Y208429D01*
X517971Y200730D01*
X517961Y200362D01*
X517931Y200007D01*
X517881Y199665D01*
X517812Y199335D01*
X517722Y199019D01*
X517613Y198715D01*
X517484Y198424D01*
X517336Y198146D01*
X517169Y197883D01*
X516985Y197635D01*
X516785Y197404D01*
X516569Y197188D01*
X516337Y196989D01*
X516087Y196805D01*
X515822Y196638D01*
X515540Y196487D01*
X515243Y196352D01*
X514934Y196236D01*
X514611Y196137D01*
X514276Y196056D01*
X513927Y195994D01*
X513565Y195949D01*
X513191Y195922D01*
X512803Y195913D01*
G37*
G36*
X526297Y195913D02*
X525839Y195925D01*
X525396Y195961D01*
X524969Y196022D01*
X524558Y196107D01*
X524162Y196216D01*
X523782Y196349D01*
X523418Y196506D01*
X523070Y196688D01*
X522739Y196892D01*
X522429Y197117D01*
X522139Y197363D01*
X521870Y197630D01*
X521620Y197917D01*
X521391Y198225D01*
X521183Y198554D01*
X520994Y198904D01*
X520827Y199272D01*
X520682Y199657D01*
X520559Y200059D01*
X520459Y200477D01*
X520381Y200912D01*
X520325Y201363D01*
X520291Y201831D01*
X520280Y202315D01*
X520286Y202679D01*
X520305Y203033D01*
X520336Y203377D01*
X520380Y203711D01*
X520436Y204035D01*
X520504Y204349D01*
X520585Y204653D01*
X520679Y204947D01*
X520785Y205231D01*
X520903Y205505D01*
X521177Y206023D01*
X521501Y206502D01*
X521874Y206940D01*
X522292Y207332D01*
X522748Y207672D01*
X522990Y207822D01*
X523242Y207959D01*
X523504Y208083D01*
X523775Y208194D01*
X524055Y208293D01*
X524346Y208377D01*
X524646Y208449D01*
X524955Y208508D01*
X525274Y208554D01*
X525603Y208587D01*
X525941Y208606D01*
X526289Y208613D01*
X526771Y208601D01*
X527233Y208565D01*
X527675Y208504D01*
X528097Y208420D01*
X528499Y208312D01*
X528880Y208179D01*
X529241Y208023D01*
X529582Y207842D01*
X529901Y207638D01*
X530199Y207410D01*
X530475Y207159D01*
X530729Y206885D01*
X530961Y206588D01*
X531171Y206267D01*
X531360Y205923D01*
X531526Y205556D01*
X529941Y205030D01*
X529825Y205292D01*
X529694Y205537D01*
X529546Y205767D01*
X529381Y205981D01*
X529201Y206179D01*
X529004Y206361D01*
X528791Y206527D01*
X528561Y206677D01*
X528318Y206811D01*
X528064Y206926D01*
X527799Y207024D01*
X527522Y207104D01*
X527235Y207166D01*
X526936Y207211D01*
X526627Y207237D01*
X526306Y207246D01*
X525808Y207226D01*
X525338Y207164D01*
X524897Y207061D01*
X524484Y206917D01*
X524100Y206731D01*
X523744Y206505D01*
X523417Y206237D01*
X523118Y205928D01*
X522851Y205583D01*
X522620Y205208D01*
X522424Y204802D01*
X522264Y204366D01*
X522139Y203899D01*
X522050Y203402D01*
X521997Y202874D01*
X521979Y202315D01*
X521998Y201762D01*
X522053Y201237D01*
X522146Y200739D01*
X522276Y200269D01*
X522443Y199827D01*
X522647Y199413D01*
X522888Y199026D01*
X523166Y198667D01*
X523476Y198344D01*
X523812Y198064D01*
X524174Y197827D01*
X524562Y197633D01*
X524976Y197482D01*
X525417Y197374D01*
X525883Y197309D01*
X526376Y197288D01*
X526695Y197298D01*
X527004Y197328D01*
X527303Y197378D01*
X527592Y197448D01*
X527871Y197539D01*
X528139Y197649D01*
X528398Y197779D01*
X528647Y197929D01*
X528885Y198100D01*
X529114Y198290D01*
X529332Y198501D01*
X529541Y198731D01*
X529739Y198982D01*
X529927Y199253D01*
X530105Y199543D01*
X530274Y199854D01*
X531640Y199171D01*
X531440Y198784D01*
X531220Y198422D01*
X530982Y198083D01*
X530724Y197767D01*
X530446Y197476D01*
X530150Y197209D01*
X529834Y196965D01*
X529499Y196745D01*
X529147Y196550D01*
X528781Y196381D01*
X528402Y196238D01*
X528008Y196121D01*
X527601Y196030D01*
X527181Y195965D01*
X526746Y195926D01*
X526297Y195913D01*
G37*
G36*
X488144Y196088D02*
X486480Y196088D01*
X486480Y207062D01*
X482241Y207062D01*
X482241Y208429D01*
X492383Y208429D01*
X492383Y207062D01*
X488144Y207062D01*
X488144Y196088D01*
G37*
D10*
X279400Y190500D02*
X482600Y190500D01*
X482600Y165100D01*
X279400Y165100D01*
X279400Y190500D01*
X431800Y393700D02*
X584200Y393700D01*
X431800Y393700D02*
X431800Y419100D01*
X584200Y419100D01*
X584200Y393700D01*
X431800Y393700D02*
X228600Y393700D01*
X228600Y419100D01*
X431800Y419100D01*
X431800Y393700D01*
X228600Y393700D02*
X76200Y393700D01*
X76200Y419100D01*
X228600Y419100D01*
X228600Y393700D01*
D11*
X76200Y31750D02*
X82550Y25400D01*
X95250Y25400D01*
X101600Y31750D01*
X107950Y25400D01*
X120650Y25400D01*
X127000Y31750D01*
X133350Y25400D01*
X146050Y25400D01*
X152400Y31750D01*
X158750Y25400D01*
X171450Y25400D01*
X177800Y31750D01*
X184150Y25400D01*
X196850Y25400D01*
X203200Y31750D01*
X209550Y25400D01*
X222250Y25400D01*
X228600Y31750D01*
X76200Y31750D02*
X76200Y69850D01*
X82550Y76200D01*
X95250Y76200D01*
X101600Y69850D01*
X107950Y76200D01*
X120650Y76200D01*
X127000Y69850D01*
X133350Y76200D01*
X146050Y76200D01*
X152400Y69850D01*
X158750Y76200D01*
X171450Y76200D01*
X177800Y69850D01*
X184150Y76200D01*
X196850Y76200D01*
X203200Y69850D01*
X209550Y76200D01*
X222250Y76200D01*
X228600Y69850D01*
X234950Y76200D01*
X247650Y76200D01*
X254000Y69850D01*
X260350Y76200D01*
X273050Y76200D01*
X279400Y69850D01*
X285750Y76200D01*
X298450Y76200D01*
X304800Y69850D01*
X311150Y76200D01*
X323850Y76200D01*
X330200Y69850D01*
X336550Y76200D01*
X349250Y76200D01*
X355600Y69850D01*
X361950Y76200D01*
X374650Y76200D01*
X381000Y69850D01*
X387350Y76200D01*
X400050Y76200D01*
X406400Y69850D01*
X412750Y76200D01*
X425450Y76200D01*
X431800Y69850D01*
X438150Y76200D01*
X450850Y76200D01*
X457200Y69850D01*
X463550Y76200D01*
X476250Y76200D01*
X482600Y69850D01*
X488950Y76200D01*
X501650Y76200D01*
X508000Y69850D01*
X514350Y76200D01*
X527050Y76200D01*
X533400Y69850D01*
X539750Y76200D01*
X552450Y76200D01*
X558800Y69850D01*
X558800Y31750D02*
X552450Y25400D01*
X539750Y25400D01*
X533400Y31750D01*
X527050Y25400D01*
X514350Y25400D01*
X508000Y31750D01*
X501650Y25400D01*
X488950Y25400D01*
X482600Y31750D01*
X476250Y25400D01*
X463550Y25400D01*
X457200Y31750D01*
X450850Y25400D01*
X438150Y25400D01*
X431800Y31750D01*
X425450Y25400D01*
X412750Y25400D01*
X406400Y31750D01*
X400050Y25400D01*
X387350Y25400D01*
X381000Y31750D01*
X374650Y25400D01*
X361950Y25400D01*
X355600Y31750D01*
X349250Y25400D01*
X336550Y25400D01*
X330200Y31750D01*
X323850Y25400D01*
X311150Y25400D01*
X304800Y31750D01*
X298450Y25400D01*
X285750Y25400D01*
X279400Y31750D01*
X273050Y25400D01*
X260350Y25400D01*
X254000Y31750D01*
X247650Y25400D01*
X234950Y25400D01*
X228600Y31750D01*
X101600Y31750D02*
X101600Y69850D01*
X127000Y69850D02*
X127000Y31750D01*
X152400Y31750D02*
X152400Y69850D01*
X177800Y69850D02*
X177800Y31750D01*
X203200Y31750D02*
X203200Y69850D01*
X228600Y69850D02*
X228600Y31750D01*
X254000Y31750D02*
X254000Y69850D01*
X279400Y69850D02*
X279400Y31750D01*
X304800Y31750D02*
X304800Y69850D01*
X330200Y69850D02*
X330200Y31750D01*
X355600Y31750D02*
X355600Y69850D01*
X381000Y69850D02*
X381000Y31750D01*
X406400Y31750D02*
X406400Y69850D01*
X431800Y69850D02*
X431800Y31750D01*
X457200Y31750D02*
X457200Y69850D01*
X482600Y69850D02*
X482600Y31750D01*
X508000Y31750D02*
X508000Y69850D01*
X533400Y69850D02*
X533400Y31750D01*
X558800Y31750D02*
X558800Y69850D01*
X565150Y76200D01*
X577850Y76200D01*
X584200Y69850D01*
X584200Y31750D02*
X577850Y25400D01*
X565150Y25400D01*
X558800Y31750D01*
X584200Y31750D02*
X584200Y69850D01*
D10*
X279400Y190500D02*
X76200Y190500D01*
X279400Y190500D02*
X279400Y165100D01*
X76200Y165100D01*
X76200Y190500D01*
D12*
X565150Y190500D02*
X577850Y190500D01*
X584200Y184150D01*
X584200Y171450D02*
X577850Y165100D01*
X539750Y190500D02*
X533400Y184150D01*
X539750Y190500D02*
X552450Y190500D01*
X558800Y184150D01*
X558800Y171450D02*
X552450Y165100D01*
X539750Y165100D01*
X533400Y171450D01*
X558800Y184150D02*
X565150Y190500D01*
X558800Y171450D02*
X565150Y165100D01*
X577850Y165100D01*
X501650Y190500D02*
X488950Y190500D01*
X501650Y190500D02*
X508000Y184150D01*
X508000Y171450D02*
X501650Y165100D01*
X508000Y184150D02*
X514350Y190500D01*
X527050Y190500D01*
X533400Y184150D01*
X533400Y171450D02*
X527050Y165100D01*
X514350Y165100D01*
X508000Y171450D01*
X482600Y171450D02*
X482600Y184150D01*
X488950Y190500D01*
X482600Y171450D02*
X488950Y165100D01*
X501650Y165100D01*
X584200Y171450D02*
X584200Y184150D01*
M02*
