G04 EAGLE Gerber RS-274X export*
G75*
%MOMM*%
%FSLAX34Y34*%
%LPD*%
%INSoldermask Top*%
%IPPOS*%
%AMOC8*
5,1,8,0,0,1.08239X$1,22.5*%
G01*
G04 Define Apertures*
%ADD10C,3.203200*%
%ADD11P,2.14443X8X112.5*%
%ADD12P,2.14443X8X292.5*%
%ADD13P,1.8695X8X22.5*%
%ADD14C,1.981200*%
%ADD15R,1.471200X1.471200*%
%ADD16C,1.471200*%
%ADD17C,1.633200*%
%ADD18C,1.611200*%
D10*
X25400Y419100D03*
X25400Y25400D03*
X774700Y25400D03*
X774700Y419100D03*
D11*
X304800Y190500D03*
X330200Y190500D03*
X355600Y190500D03*
X381000Y190500D03*
X406400Y190500D03*
X431800Y190500D03*
X457200Y190500D03*
X482600Y190500D03*
D12*
X584200Y419100D03*
X558800Y419100D03*
X533400Y419100D03*
X508000Y419100D03*
X482600Y419100D03*
X457200Y419100D03*
X431800Y419100D03*
X406400Y419100D03*
X381000Y419100D03*
X355600Y419100D03*
X330200Y419100D03*
X304800Y419100D03*
X279400Y419100D03*
X254000Y419100D03*
X228600Y419100D03*
X203200Y419100D03*
X177800Y419100D03*
X152400Y419100D03*
X127000Y419100D03*
X101600Y419100D03*
D13*
X101600Y50800D03*
X101600Y76200D03*
X127000Y50800D03*
X127000Y76200D03*
X152400Y50800D03*
X152400Y76200D03*
X177800Y50800D03*
X177800Y76200D03*
X203200Y50800D03*
X203200Y76200D03*
X228600Y50800D03*
X228600Y76200D03*
X254000Y50800D03*
X254000Y76200D03*
X279400Y50800D03*
X279400Y76200D03*
X304800Y50800D03*
X304800Y76200D03*
X330200Y50800D03*
X330200Y76200D03*
X355600Y50800D03*
X355600Y76200D03*
X381000Y50800D03*
X381000Y76200D03*
X406400Y50800D03*
X406400Y76200D03*
X431800Y50800D03*
X431800Y76200D03*
X457200Y50800D03*
X457200Y76200D03*
X482600Y50800D03*
X482600Y76200D03*
X508000Y50800D03*
X508000Y76200D03*
X533400Y50800D03*
X533400Y76200D03*
X558800Y50800D03*
X558800Y76200D03*
X584200Y50800D03*
X584200Y76200D03*
D11*
X101600Y190500D03*
X127000Y190500D03*
X152400Y190500D03*
X177800Y190500D03*
X203200Y190500D03*
X228600Y190500D03*
X254000Y190500D03*
X279400Y190500D03*
D14*
X508000Y190500D03*
X533400Y190500D03*
X558800Y190500D03*
X584200Y190500D03*
D15*
X664220Y228600D03*
D16*
X664220Y203200D03*
X664220Y177800D03*
X664220Y152400D03*
X758180Y152400D03*
X758180Y177800D03*
X758180Y203200D03*
X758180Y228600D03*
D17*
X609220Y95758D03*
X726820Y95758D03*
D18*
X711200Y368300D03*
X711200Y343300D03*
X711200Y318300D03*
X711200Y293300D03*
M02*
